<mxfile host="app.diagrams.net" modified="2023-04-03T16:43:19.899Z" agent="Mozilla/5.0 (Windows NT 10.0; Win64; x64) AppleWebKit/537.36 (KHTML, like Gecko) Chrome/111.0.0.0 Safari/537.36" etag="JWbx_rj5N0ww77Uu7e2J" version="21.1.2" type="github">
  <diagram id="kyNIIBFYwi3PLxOYdT3i" name="Página-2">
    <mxGraphModel dx="1434" dy="764" grid="1" gridSize="10" guides="1" tooltips="1" connect="1" arrows="1" fold="1" page="1" pageScale="1" pageWidth="2050" pageHeight="1000" math="0" shadow="0">
      <root>
        <mxCell id="0" />
        <mxCell id="1" parent="0" />
        <mxCell id="pMKCEfHnvMBUZbaVZpTq-1" value="Pool" style="swimlane;childLayout=stackLayout;resizeParent=1;resizeParentMax=0;horizontal=1;startSize=20;horizontalStack=0;html=1;" parent="1" vertex="1">
          <mxGeometry x="20" y="20" width="2020" height="970" as="geometry" />
        </mxCell>
        <mxCell id="pMKCEfHnvMBUZbaVZpTq-2" value="Lane 1" style="swimlane;startSize=20;horizontal=0;html=1;" parent="pMKCEfHnvMBUZbaVZpTq-1" vertex="1">
          <mxGeometry y="20" width="2020" height="950" as="geometry" />
        </mxCell>
        <mxCell id="CT9fACoQjF7vQsgSXzen-96" value="" style="strokeWidth=2;html=1;shape=mxgraph.flowchart.start_2;whiteSpace=wrap;fillColor=#f8cecc;strokeColor=#b85450;" parent="pMKCEfHnvMBUZbaVZpTq-2" vertex="1">
          <mxGeometry x="1900" y="350" width="40" height="40" as="geometry" />
        </mxCell>
        <mxCell id="CT9fACoQjF7vQsgSXzen-5" value="Validar archivos RIPS" style="points=[[0.25,0,0],[0.5,0,0],[0.75,0,0],[1,0.25,0],[1,0.5,0],[1,0.75,0],[0.75,1,0],[0.5,1,0],[0.25,1,0],[0,0.75,0],[0,0.5,0],[0,0.25,0]];shape=mxgraph.bpmn.task;whiteSpace=wrap;rectStyle=rounded;size=10;html=1;taskMarker=abstract;fontSize=9;fillColor=#fff2cc;strokeColor=#d6b656;" parent="pMKCEfHnvMBUZbaVZpTq-2" vertex="1">
          <mxGeometry x="150" y="440" width="90" height="60" as="geometry" />
        </mxCell>
        <mxCell id="CT9fACoQjF7vQsgSXzen-9" value="" style="shape=mxgraph.bpmn.data;labelPosition=center;verticalLabelPosition=bottom;align=center;verticalAlign=top;whiteSpace=wrap;size=15;html=1;bpmnTransferType=input;fontSize=9;fillColor=#bac8d3;strokeColor=#23445d;" parent="pMKCEfHnvMBUZbaVZpTq-2" vertex="1">
          <mxGeometry x="175" y="340" width="40" height="50" as="geometry" />
        </mxCell>
        <mxCell id="CT9fACoQjF7vQsgSXzen-8" value="&lt;font style=&quot;font-size: 9px;&quot;&gt;Archivos RIPS&lt;/font&gt;" style="edgeStyle=orthogonalEdgeStyle;rounded=0;orthogonalLoop=1;jettySize=auto;html=1;dashed=1;entryX=0.5;entryY=0;entryDx=0;entryDy=0;entryPerimeter=0;" parent="pMKCEfHnvMBUZbaVZpTq-2" source="CT9fACoQjF7vQsgSXzen-9" target="CT9fACoQjF7vQsgSXzen-5" edge="1">
          <mxGeometry relative="1" as="geometry">
            <mxPoint x="345" y="440" as="targetPoint" />
          </mxGeometry>
        </mxCell>
        <mxCell id="AasncPVyMV13ykokx1Vr-11" style="edgeStyle=orthogonalEdgeStyle;rounded=0;orthogonalLoop=1;jettySize=auto;html=1;dashed=1;" edge="1" parent="pMKCEfHnvMBUZbaVZpTq-2" source="CT9fACoQjF7vQsgSXzen-43" target="CT9fACoQjF7vQsgSXzen-18">
          <mxGeometry relative="1" as="geometry" />
        </mxCell>
        <mxCell id="CT9fACoQjF7vQsgSXzen-43" value="Validación por primera vez" style="points=[[0.25,0,0],[0.5,0,0],[0.75,0,0],[1,0.25,0],[1,0.5,0],[1,0.75,0],[0.75,1,0],[0.5,1,0],[0.25,1,0],[0,0.75,0],[0,0.5,0],[0,0.25,0]];shape=mxgraph.bpmn.task;whiteSpace=wrap;rectStyle=rounded;size=10;html=1;taskMarker=abstract;fontSize=9;fillColor=#fff2cc;strokeColor=#d6b656;" parent="pMKCEfHnvMBUZbaVZpTq-2" vertex="1">
          <mxGeometry x="270" y="440" width="90" height="60" as="geometry" />
        </mxCell>
        <mxCell id="CT9fACoQjF7vQsgSXzen-16" style="edgeStyle=orthogonalEdgeStyle;rounded=0;orthogonalLoop=1;jettySize=auto;html=1;dashed=1;entryX=0;entryY=0.5;entryDx=0;entryDy=0;entryPerimeter=0;" parent="pMKCEfHnvMBUZbaVZpTq-2" source="CT9fACoQjF7vQsgSXzen-5" target="CT9fACoQjF7vQsgSXzen-43" edge="1">
          <mxGeometry relative="1" as="geometry">
            <mxPoint x="570" y="470" as="targetPoint" />
            <Array as="points" />
          </mxGeometry>
        </mxCell>
        <mxCell id="AasncPVyMV13ykokx1Vr-13" style="edgeStyle=orthogonalEdgeStyle;rounded=0;orthogonalLoop=1;jettySize=auto;html=1;dashed=1;entryX=0;entryY=0.5;entryDx=0;entryDy=0;entryPerimeter=0;" edge="1" parent="pMKCEfHnvMBUZbaVZpTq-2" source="CT9fACoQjF7vQsgSXzen-15" target="AasncPVyMV13ykokx1Vr-15">
          <mxGeometry relative="1" as="geometry">
            <mxPoint x="710" y="340" as="targetPoint" />
          </mxGeometry>
        </mxCell>
        <mxCell id="AasncPVyMV13ykokx1Vr-14" style="edgeStyle=orthogonalEdgeStyle;rounded=0;orthogonalLoop=1;jettySize=auto;html=1;dashed=1;entryX=0;entryY=0.5;entryDx=0;entryDy=0;entryPerimeter=0;" edge="1" parent="pMKCEfHnvMBUZbaVZpTq-2" source="CT9fACoQjF7vQsgSXzen-15" target="AasncPVyMV13ykokx1Vr-16">
          <mxGeometry relative="1" as="geometry">
            <mxPoint x="710" y="620" as="targetPoint" />
            <Array as="points">
              <mxPoint x="620" y="470" />
              <mxPoint x="620" y="555" />
            </Array>
          </mxGeometry>
        </mxCell>
        <mxCell id="CT9fACoQjF7vQsgSXzen-15" value="" style="points=[[0.25,0.25,0],[0.5,0,0],[0.75,0.25,0],[1,0.5,0],[0.75,0.75,0],[0.5,1,0],[0.25,0.75,0],[0,0.5,0]];shape=mxgraph.bpmn.gateway2;html=1;verticalLabelPosition=bottom;labelBackgroundColor=#ffffff;verticalAlign=top;align=center;perimeter=rhombusPerimeter;outlineConnect=0;outline=none;symbol=none;gwType=parallel;fillColor=#ffe6cc;strokeColor=#d79b00;" parent="pMKCEfHnvMBUZbaVZpTq-2" vertex="1">
          <mxGeometry x="520" y="441.24" width="60" height="57.51" as="geometry" />
        </mxCell>
        <mxCell id="AasncPVyMV13ykokx1Vr-12" style="edgeStyle=orthogonalEdgeStyle;rounded=0;orthogonalLoop=1;jettySize=auto;html=1;entryX=0;entryY=0.5;entryDx=0;entryDy=0;entryPerimeter=0;dashed=1;" edge="1" parent="pMKCEfHnvMBUZbaVZpTq-2" source="CT9fACoQjF7vQsgSXzen-18" target="CT9fACoQjF7vQsgSXzen-15">
          <mxGeometry relative="1" as="geometry" />
        </mxCell>
        <mxCell id="CT9fACoQjF7vQsgSXzen-18" value="Validar tipo de archivo de RIPS" style="points=[[0.25,0,0],[0.5,0,0],[0.75,0,0],[1,0.25,0],[1,0.5,0],[1,0.75,0],[0.75,1,0],[0.5,1,0],[0.25,1,0],[0,0.75,0],[0,0.5,0],[0,0.25,0]];shape=mxgraph.bpmn.task;whiteSpace=wrap;rectStyle=rounded;size=10;html=1;taskMarker=abstract;fontSize=9;fillColor=#fff2cc;strokeColor=#d6b656;" parent="pMKCEfHnvMBUZbaVZpTq-2" vertex="1">
          <mxGeometry x="400" y="444.99" width="90" height="50.01" as="geometry" />
        </mxCell>
        <mxCell id="AasncPVyMV13ykokx1Vr-17" style="edgeStyle=orthogonalEdgeStyle;rounded=0;orthogonalLoop=1;jettySize=auto;html=1;dashed=1;entryX=0;entryY=0.5;entryDx=0;entryDy=0;entryPerimeter=0;" edge="1" parent="pMKCEfHnvMBUZbaVZpTq-2" source="AasncPVyMV13ykokx1Vr-15" target="AasncPVyMV13ykokx1Vr-18">
          <mxGeometry relative="1" as="geometry">
            <mxPoint x="790" y="375" as="targetPoint" />
          </mxGeometry>
        </mxCell>
        <mxCell id="AasncPVyMV13ykokx1Vr-15" value="Archivo tipo AF" style="points=[[0.25,0,0],[0.5,0,0],[0.75,0,0],[1,0.25,0],[1,0.5,0],[1,0.75,0],[0.75,1,0],[0.5,1,0],[0.25,1,0],[0,0.75,0],[0,0.5,0],[0,0.25,0]];shape=mxgraph.bpmn.task;whiteSpace=wrap;rectStyle=rounded;size=10;html=1;taskMarker=abstract;fontSize=9;fillColor=#fff2cc;strokeColor=#d6b656;" vertex="1" parent="pMKCEfHnvMBUZbaVZpTq-2">
          <mxGeometry x="660" y="350" width="90" height="50" as="geometry" />
        </mxCell>
        <mxCell id="AasncPVyMV13ykokx1Vr-31" style="edgeStyle=orthogonalEdgeStyle;rounded=0;orthogonalLoop=1;jettySize=auto;html=1;entryX=0;entryY=0.5;entryDx=0;entryDy=0;dashed=1;" edge="1" parent="pMKCEfHnvMBUZbaVZpTq-2" source="AasncPVyMV13ykokx1Vr-16" target="AasncPVyMV13ykokx1Vr-30">
          <mxGeometry relative="1" as="geometry" />
        </mxCell>
        <mxCell id="AasncPVyMV13ykokx1Vr-16" value="Archivo tipo AC,AP,AU,AH" style="points=[[0.25,0,0],[0.5,0,0],[0.75,0,0],[1,0.25,0],[1,0.5,0],[1,0.75,0],[0.75,1,0],[0.5,1,0],[0.25,1,0],[0,0.75,0],[0,0.5,0],[0,0.25,0]];shape=mxgraph.bpmn.task;whiteSpace=wrap;rectStyle=rounded;size=10;html=1;taskMarker=abstract;fontSize=9;fillColor=#fff2cc;strokeColor=#d6b656;" vertex="1" parent="pMKCEfHnvMBUZbaVZpTq-2">
          <mxGeometry x="740" y="530" width="105" height="50" as="geometry" />
        </mxCell>
        <mxCell id="AasncPVyMV13ykokx1Vr-19" style="edgeStyle=orthogonalEdgeStyle;rounded=0;orthogonalLoop=1;jettySize=auto;html=1;dashed=1;entryX=0;entryY=0.5;entryDx=0;entryDy=0;entryPerimeter=0;" edge="1" parent="pMKCEfHnvMBUZbaVZpTq-2" source="AasncPVyMV13ykokx1Vr-18" target="AasncPVyMV13ykokx1Vr-20">
          <mxGeometry relative="1" as="geometry">
            <mxPoint x="940" y="375" as="targetPoint" />
          </mxGeometry>
        </mxCell>
        <mxCell id="AasncPVyMV13ykokx1Vr-18" value="Capturar el número de la factura en el AF" style="points=[[0.25,0,0],[0.5,0,0],[0.75,0,0],[1,0.25,0],[1,0.5,0],[1,0.75,0],[0.75,1,0],[0.5,1,0],[0.25,1,0],[0,0.75,0],[0,0.5,0],[0,0.25,0]];shape=mxgraph.bpmn.task;whiteSpace=wrap;rectStyle=rounded;size=10;html=1;taskMarker=abstract;fontSize=9;fillColor=#fff2cc;strokeColor=#d6b656;" vertex="1" parent="pMKCEfHnvMBUZbaVZpTq-2">
          <mxGeometry x="800" y="350" width="90" height="50" as="geometry" />
        </mxCell>
        <mxCell id="AasncPVyMV13ykokx1Vr-20" value="Buscar la factura en los archivos de servicios AC, AP, AU, AH" style="points=[[0.25,0,0],[0.5,0,0],[0.75,0,0],[1,0.25,0],[1,0.5,0],[1,0.75,0],[0.75,1,0],[0.5,1,0],[0.25,1,0],[0,0.75,0],[0,0.5,0],[0,0.25,0]];shape=mxgraph.bpmn.task;whiteSpace=wrap;rectStyle=rounded;size=10;html=1;taskMarker=abstract;fontSize=9;fillColor=#fff2cc;strokeColor=#d6b656;" vertex="1" parent="pMKCEfHnvMBUZbaVZpTq-2">
          <mxGeometry x="930" y="350" width="100" height="50" as="geometry" />
        </mxCell>
        <mxCell id="AasncPVyMV13ykokx1Vr-34" style="edgeStyle=orthogonalEdgeStyle;rounded=0;orthogonalLoop=1;jettySize=auto;html=1;entryX=0;entryY=0.5;entryDx=0;entryDy=0;entryPerimeter=0;dashed=1;" edge="1" parent="pMKCEfHnvMBUZbaVZpTq-2" source="AasncPVyMV13ykokx1Vr-24" target="AasncPVyMV13ykokx1Vr-33">
          <mxGeometry relative="1" as="geometry" />
        </mxCell>
        <mxCell id="AasncPVyMV13ykokx1Vr-24" value="Capturar el número de la fecha de prestación" style="points=[[0.25,0,0],[0.5,0,0],[0.75,0,0],[1,0.25,0],[1,0.5,0],[1,0.75,0],[0.75,1,0],[0.5,1,0],[0.25,1,0],[0,0.75,0],[0,0.5,0],[0,0.25,0]];shape=mxgraph.bpmn.task;whiteSpace=wrap;rectStyle=rounded;size=10;html=1;taskMarker=abstract;fontSize=9;fillColor=#fff2cc;strokeColor=#d6b656;" vertex="1" parent="pMKCEfHnvMBUZbaVZpTq-2">
          <mxGeometry x="1240" y="350" width="90" height="50" as="geometry" />
        </mxCell>
        <mxCell id="AasncPVyMV13ykokx1Vr-29" style="edgeStyle=orthogonalEdgeStyle;rounded=0;orthogonalLoop=1;jettySize=auto;html=1;dashed=1;" edge="1" parent="pMKCEfHnvMBUZbaVZpTq-2" source="AasncPVyMV13ykokx1Vr-28" target="AasncPVyMV13ykokx1Vr-24">
          <mxGeometry relative="1" as="geometry" />
        </mxCell>
        <mxCell id="AasncPVyMV13ykokx1Vr-28" value="&lt;font style=&quot;font-size: 9px;&quot;&gt;Número de factura de los archivos AC, AP, AU, AH&lt;/font&gt;" style="shape=mxgraph.bpmn.data;labelPosition=center;verticalLabelPosition=bottom;align=center;verticalAlign=top;size=15;html=1;bpmnTransferType=output;isCollection=1;fillColor=#bac8d3;strokeColor=#23445d;" vertex="1" parent="pMKCEfHnvMBUZbaVZpTq-2">
          <mxGeometry x="1110" y="345" width="40" height="60" as="geometry" />
        </mxCell>
        <mxCell id="AasncPVyMV13ykokx1Vr-27" style="edgeStyle=orthogonalEdgeStyle;rounded=0;orthogonalLoop=1;jettySize=auto;html=1;dashed=1;" edge="1" parent="pMKCEfHnvMBUZbaVZpTq-2" source="AasncPVyMV13ykokx1Vr-20" target="AasncPVyMV13ykokx1Vr-28">
          <mxGeometry relative="1" as="geometry">
            <mxPoint x="1080" y="375" as="targetPoint" />
          </mxGeometry>
        </mxCell>
        <mxCell id="AasncPVyMV13ykokx1Vr-32" style="edgeStyle=orthogonalEdgeStyle;rounded=0;orthogonalLoop=1;jettySize=auto;html=1;entryX=0.5;entryY=1;entryDx=0;entryDy=0;entryPerimeter=0;dashed=1;" edge="1" parent="pMKCEfHnvMBUZbaVZpTq-2" source="AasncPVyMV13ykokx1Vr-30" target="AasncPVyMV13ykokx1Vr-20">
          <mxGeometry relative="1" as="geometry" />
        </mxCell>
        <mxCell id="AasncPVyMV13ykokx1Vr-30" value="&lt;font style=&quot;font-size: 9px;&quot;&gt;Información de archivos RIPS&lt;/font&gt;" style="shape=datastore;html=1;labelPosition=center;verticalLabelPosition=bottom;align=center;verticalAlign=top;fillColor=#bac8d3;strokeColor=#23445d;" vertex="1" parent="pMKCEfHnvMBUZbaVZpTq-2">
          <mxGeometry x="945" y="520" width="70" height="70" as="geometry" />
        </mxCell>
        <mxCell id="AasncPVyMV13ykokx1Vr-69" style="edgeStyle=orthogonalEdgeStyle;rounded=0;orthogonalLoop=1;jettySize=auto;html=1;entryX=0;entryY=0.5;entryDx=0;entryDy=0;entryPerimeter=0;dashed=1;" edge="1" parent="pMKCEfHnvMBUZbaVZpTq-2" source="AasncPVyMV13ykokx1Vr-33" target="AasncPVyMV13ykokx1Vr-35">
          <mxGeometry relative="1" as="geometry" />
        </mxCell>
        <mxCell id="AasncPVyMV13ykokx1Vr-70" style="edgeStyle=orthogonalEdgeStyle;rounded=0;orthogonalLoop=1;jettySize=auto;html=1;entryX=0;entryY=0.5;entryDx=0;entryDy=0;entryPerimeter=0;dashed=1;" edge="1" parent="pMKCEfHnvMBUZbaVZpTq-2" source="AasncPVyMV13ykokx1Vr-33" target="AasncPVyMV13ykokx1Vr-68">
          <mxGeometry relative="1" as="geometry" />
        </mxCell>
        <mxCell id="AasncPVyMV13ykokx1Vr-71" style="edgeStyle=orthogonalEdgeStyle;rounded=0;orthogonalLoop=1;jettySize=auto;html=1;entryX=0;entryY=0.5;entryDx=0;entryDy=0;entryPerimeter=0;dashed=1;" edge="1" parent="pMKCEfHnvMBUZbaVZpTq-2" source="AasncPVyMV13ykokx1Vr-33" target="AasncPVyMV13ykokx1Vr-66">
          <mxGeometry relative="1" as="geometry" />
        </mxCell>
        <mxCell id="AasncPVyMV13ykokx1Vr-72" style="edgeStyle=orthogonalEdgeStyle;rounded=0;orthogonalLoop=1;jettySize=auto;html=1;entryX=0;entryY=0.5;entryDx=0;entryDy=0;entryPerimeter=0;dashed=1;" edge="1" parent="pMKCEfHnvMBUZbaVZpTq-2" source="AasncPVyMV13ykokx1Vr-33" target="AasncPVyMV13ykokx1Vr-67">
          <mxGeometry relative="1" as="geometry" />
        </mxCell>
        <mxCell id="AasncPVyMV13ykokx1Vr-33" value="" style="points=[[0.25,0.25,0],[0.5,0,0],[0.75,0.25,0],[1,0.5,0],[0.75,0.75,0],[0.5,1,0],[0.25,0.75,0],[0,0.5,0]];shape=mxgraph.bpmn.gateway2;html=1;verticalLabelPosition=bottom;labelBackgroundColor=#ffffff;verticalAlign=top;align=center;perimeter=rhombusPerimeter;outlineConnect=0;outline=none;symbol=none;gwType=parallel;fillColor=#ffe6cc;strokeColor=#d79b00;" vertex="1" parent="pMKCEfHnvMBUZbaVZpTq-2">
          <mxGeometry x="1380" y="346.24" width="60" height="57.51" as="geometry" />
        </mxCell>
        <mxCell id="AasncPVyMV13ykokx1Vr-73" style="edgeStyle=orthogonalEdgeStyle;rounded=0;orthogonalLoop=1;jettySize=auto;html=1;dashed=1;" edge="1" parent="pMKCEfHnvMBUZbaVZpTq-2" source="AasncPVyMV13ykokx1Vr-35" target="AasncPVyMV13ykokx1Vr-74">
          <mxGeometry relative="1" as="geometry">
            <mxPoint x="1610" y="205" as="targetPoint" />
          </mxGeometry>
        </mxCell>
        <mxCell id="AasncPVyMV13ykokx1Vr-35" value="Archivo AC" style="points=[[0.25,0,0],[0.5,0,0],[0.75,0,0],[1,0.25,0],[1,0.5,0],[1,0.75,0],[0.75,1,0],[0.5,1,0],[0.25,1,0],[0,0.75,0],[0,0.5,0],[0,0.25,0]];shape=mxgraph.bpmn.task;whiteSpace=wrap;rectStyle=rounded;size=10;html=1;taskMarker=abstract;fontSize=9;fillColor=#fff2cc;strokeColor=#d6b656;" vertex="1" parent="pMKCEfHnvMBUZbaVZpTq-2">
          <mxGeometry x="1480" y="180" width="90" height="50" as="geometry" />
        </mxCell>
        <mxCell id="AasncPVyMV13ykokx1Vr-81" style="edgeStyle=orthogonalEdgeStyle;rounded=0;orthogonalLoop=1;jettySize=auto;html=1;" edge="1" parent="pMKCEfHnvMBUZbaVZpTq-2" source="AasncPVyMV13ykokx1Vr-68" target="AasncPVyMV13ykokx1Vr-79">
          <mxGeometry relative="1" as="geometry" />
        </mxCell>
        <mxCell id="AasncPVyMV13ykokx1Vr-68" value="Archivo AH" style="points=[[0.25,0,0],[0.5,0,0],[0.75,0,0],[1,0.25,0],[1,0.5,0],[1,0.75,0],[0.75,1,0],[0.5,1,0],[0.25,1,0],[0,0.75,0],[0,0.5,0],[0,0.25,0]];shape=mxgraph.bpmn.task;whiteSpace=wrap;rectStyle=rounded;size=10;html=1;taskMarker=abstract;fontSize=9;fillColor=#fff2cc;strokeColor=#d6b656;" vertex="1" parent="pMKCEfHnvMBUZbaVZpTq-2">
          <mxGeometry x="1480" y="520" width="90" height="50" as="geometry" />
        </mxCell>
        <mxCell id="AasncPVyMV13ykokx1Vr-78" style="edgeStyle=orthogonalEdgeStyle;rounded=0;orthogonalLoop=1;jettySize=auto;html=1;entryX=0;entryY=0.5;entryDx=0;entryDy=0;entryPerimeter=0;dashed=1;" edge="1" parent="pMKCEfHnvMBUZbaVZpTq-2" source="AasncPVyMV13ykokx1Vr-67" target="AasncPVyMV13ykokx1Vr-77">
          <mxGeometry relative="1" as="geometry" />
        </mxCell>
        <mxCell id="AasncPVyMV13ykokx1Vr-67" value="Archivo AU" style="points=[[0.25,0,0],[0.5,0,0],[0.75,0,0],[1,0.25,0],[1,0.5,0],[1,0.75,0],[0.75,1,0],[0.5,1,0],[0.25,1,0],[0,0.75,0],[0,0.5,0],[0,0.25,0]];shape=mxgraph.bpmn.task;whiteSpace=wrap;rectStyle=rounded;size=10;html=1;taskMarker=abstract;fontSize=9;fillColor=#fff2cc;strokeColor=#d6b656;" vertex="1" parent="pMKCEfHnvMBUZbaVZpTq-2">
          <mxGeometry x="1480" y="405" width="90" height="50" as="geometry" />
        </mxCell>
        <mxCell id="AasncPVyMV13ykokx1Vr-76" style="edgeStyle=orthogonalEdgeStyle;rounded=0;orthogonalLoop=1;jettySize=auto;html=1;entryX=0;entryY=0.5;entryDx=0;entryDy=0;entryPerimeter=0;dashed=1;" edge="1" parent="pMKCEfHnvMBUZbaVZpTq-2" source="AasncPVyMV13ykokx1Vr-66" target="AasncPVyMV13ykokx1Vr-75">
          <mxGeometry relative="1" as="geometry" />
        </mxCell>
        <mxCell id="AasncPVyMV13ykokx1Vr-66" value="Archivo AP" style="points=[[0.25,0,0],[0.5,0,0],[0.75,0,0],[1,0.25,0],[1,0.5,0],[1,0.75,0],[0.75,1,0],[0.5,1,0],[0.25,1,0],[0,0.75,0],[0,0.5,0],[0,0.25,0]];shape=mxgraph.bpmn.task;whiteSpace=wrap;rectStyle=rounded;size=10;html=1;taskMarker=abstract;fontSize=9;fillColor=#fff2cc;strokeColor=#d6b656;" vertex="1" parent="pMKCEfHnvMBUZbaVZpTq-2">
          <mxGeometry x="1480" y="290" width="90" height="50" as="geometry" />
        </mxCell>
        <mxCell id="AasncPVyMV13ykokx1Vr-83" style="edgeStyle=orthogonalEdgeStyle;rounded=0;orthogonalLoop=1;jettySize=auto;html=1;entryX=0.5;entryY=0;entryDx=0;entryDy=0;dashed=1;" edge="1" parent="pMKCEfHnvMBUZbaVZpTq-2" source="AasncPVyMV13ykokx1Vr-74" target="AasncPVyMV13ykokx1Vr-82">
          <mxGeometry relative="1" as="geometry" />
        </mxCell>
        <mxCell id="AasncPVyMV13ykokx1Vr-74" value="Fecha de la consulta" style="points=[[0.25,0,0],[0.5,0,0],[0.75,0,0],[1,0.25,0],[1,0.5,0],[1,0.75,0],[0.75,1,0],[0.5,1,0],[0.25,1,0],[0,0.75,0],[0,0.5,0],[0,0.25,0]];shape=mxgraph.bpmn.task;whiteSpace=wrap;rectStyle=rounded;size=10;html=1;taskMarker=abstract;fontSize=9;fillColor=#fff2cc;strokeColor=#d6b656;" vertex="1" parent="pMKCEfHnvMBUZbaVZpTq-2">
          <mxGeometry x="1610" y="180" width="90" height="50" as="geometry" />
        </mxCell>
        <mxCell id="AasncPVyMV13ykokx1Vr-84" style="edgeStyle=orthogonalEdgeStyle;rounded=0;orthogonalLoop=1;jettySize=auto;html=1;dashed=1;" edge="1" parent="pMKCEfHnvMBUZbaVZpTq-2" source="AasncPVyMV13ykokx1Vr-75" target="AasncPVyMV13ykokx1Vr-82">
          <mxGeometry relative="1" as="geometry" />
        </mxCell>
        <mxCell id="AasncPVyMV13ykokx1Vr-75" value="Fecha del procedimiento" style="points=[[0.25,0,0],[0.5,0,0],[0.75,0,0],[1,0.25,0],[1,0.5,0],[1,0.75,0],[0.75,1,0],[0.5,1,0],[0.25,1,0],[0,0.75,0],[0,0.5,0],[0,0.25,0]];shape=mxgraph.bpmn.task;whiteSpace=wrap;rectStyle=rounded;size=10;html=1;taskMarker=abstract;fontSize=9;fillColor=#fff2cc;strokeColor=#d6b656;" vertex="1" parent="pMKCEfHnvMBUZbaVZpTq-2">
          <mxGeometry x="1610" y="290" width="90" height="50" as="geometry" />
        </mxCell>
        <mxCell id="AasncPVyMV13ykokx1Vr-85" style="edgeStyle=orthogonalEdgeStyle;rounded=0;orthogonalLoop=1;jettySize=auto;html=1;entryX=0;entryY=0.5;entryDx=0;entryDy=0;dashed=1;" edge="1" parent="pMKCEfHnvMBUZbaVZpTq-2" source="AasncPVyMV13ykokx1Vr-77" target="AasncPVyMV13ykokx1Vr-82">
          <mxGeometry relative="1" as="geometry" />
        </mxCell>
        <mxCell id="AasncPVyMV13ykokx1Vr-77" value="Fecha de ingreso y salida a observación" style="points=[[0.25,0,0],[0.5,0,0],[0.75,0,0],[1,0.25,0],[1,0.5,0],[1,0.75,0],[0.75,1,0],[0.5,1,0],[0.25,1,0],[0,0.75,0],[0,0.5,0],[0,0.25,0]];shape=mxgraph.bpmn.task;whiteSpace=wrap;rectStyle=rounded;size=10;html=1;taskMarker=abstract;fontSize=9;fillColor=#fff2cc;strokeColor=#d6b656;" vertex="1" parent="pMKCEfHnvMBUZbaVZpTq-2">
          <mxGeometry x="1610" y="405" width="90" height="50" as="geometry" />
        </mxCell>
        <mxCell id="AasncPVyMV13ykokx1Vr-86" style="edgeStyle=orthogonalEdgeStyle;rounded=0;orthogonalLoop=1;jettySize=auto;html=1;dashed=1;" edge="1" parent="pMKCEfHnvMBUZbaVZpTq-2" source="AasncPVyMV13ykokx1Vr-79" target="AasncPVyMV13ykokx1Vr-82">
          <mxGeometry relative="1" as="geometry" />
        </mxCell>
        <mxCell id="AasncPVyMV13ykokx1Vr-79" value="Fecha de ingreso y egreso de hospitalización" style="points=[[0.25,0,0],[0.5,0,0],[0.75,0,0],[1,0.25,0],[1,0.5,0],[1,0.75,0],[0.75,1,0],[0.5,1,0],[0.25,1,0],[0,0.75,0],[0,0.5,0],[0,0.25,0]];shape=mxgraph.bpmn.task;whiteSpace=wrap;rectStyle=rounded;size=10;html=1;taskMarker=abstract;fontSize=9;fillColor=#fff2cc;strokeColor=#d6b656;" vertex="1" parent="pMKCEfHnvMBUZbaVZpTq-2">
          <mxGeometry x="1610" y="520" width="90" height="50" as="geometry" />
        </mxCell>
        <mxCell id="AasncPVyMV13ykokx1Vr-87" style="edgeStyle=orthogonalEdgeStyle;rounded=0;orthogonalLoop=1;jettySize=auto;html=1;" edge="1" parent="pMKCEfHnvMBUZbaVZpTq-2" source="AasncPVyMV13ykokx1Vr-82" target="CT9fACoQjF7vQsgSXzen-96">
          <mxGeometry relative="1" as="geometry">
            <mxPoint x="1900" y="370" as="targetPoint" />
          </mxGeometry>
        </mxCell>
        <mxCell id="AasncPVyMV13ykokx1Vr-82" value="&lt;font style=&quot;font-size: 9px;&quot;&gt;Almacenar fechas en&lt;br&gt;base de datos&lt;br&gt;&lt;/font&gt;" style="shape=datastore;html=1;labelPosition=center;verticalLabelPosition=bottom;align=center;verticalAlign=top;fillColor=#bac8d3;strokeColor=#23445d;" vertex="1" parent="pMKCEfHnvMBUZbaVZpTq-2">
          <mxGeometry x="1780" y="335" width="70" height="70" as="geometry" />
        </mxCell>
        <mxCell id="CT9fACoQjF7vQsgSXzen-1" style="edgeStyle=orthogonalEdgeStyle;rounded=0;orthogonalLoop=1;jettySize=auto;html=1;dashed=1;entryX=0;entryY=0.5;entryDx=0;entryDy=0;entryPerimeter=0;" parent="1" source="CT9fACoQjF7vQsgSXzen-2" target="CT9fACoQjF7vQsgSXzen-5" edge="1">
          <mxGeometry relative="1" as="geometry">
            <mxPoint x="160" y="510" as="targetPoint" />
          </mxGeometry>
        </mxCell>
        <mxCell id="CT9fACoQjF7vQsgSXzen-2" value="" style="strokeWidth=2;html=1;shape=mxgraph.flowchart.start_2;whiteSpace=wrap;fillColor=#f8cecc;strokeColor=#b85450;" parent="1" vertex="1">
          <mxGeometry x="80" y="490" width="40" height="40" as="geometry" />
        </mxCell>
      </root>
    </mxGraphModel>
  </diagram>
</mxfile>
